<svg id="theGraph" xmlns="http://www.w3.org/2000/svg" style="max-width: none;" viewBox="-24 -24 1477 842" role="graphics-document document" aria-roledescription="flowchart-v2" width="1477" height="842"><style>#theGraph{font-family:Segoe UI,Arial,sans-serif;font-size:14px;fill:#333;}#theGraph .error-icon{fill:hsl(220.5882352941, 100%, 98.3333333333%);}#theGraph .error-text{fill:rgb(8.5000000002, 5.7500000001, 0);stroke:rgb(8.5000000002, 5.7500000001, 0);}#theGraph .edge-thickness-normal{stroke-width:2px;}#theGraph .edge-thickness-thick{stroke-width:3.5px;}#theGraph .edge-pattern-solid{stroke-dasharray:0;}#theGraph .edge-pattern-dashed{stroke-dasharray:3;}#theGraph .edge-pattern-dotted{stroke-dasharray:2;}#theGraph .marker{fill:#0b0b0b;stroke:#0b0b0b;}#theGraph .marker.cross{stroke:#0b0b0b;}#theGraph svg{font-family:Segoe UI,Arial,sans-serif;font-size:14px;}#theGraph .label{font-family:Segoe UI,Arial,sans-serif;color:#333;}#theGraph .cluster-label text{fill:rgb(8.5000000002, 5.7500000001, 0);}#theGraph .cluster-label span,#theGraph p{color:rgb(8.5000000002, 5.7500000001, 0);}#theGraph .label text,#theGraph span,#theGraph p{fill:#333;color:#333;}#theGraph .node rect,#theGraph .node circle,#theGraph .node ellipse,#theGraph .node polygon,#theGraph .node path{fill:#fff4dd;stroke:hsl(40.5882352941, 60%, 83.3333333333%);stroke-width:1px;}#theGraph .flowchart-label text{text-anchor:middle;}#theGraph .node .katex path{fill:#000;stroke:#000;stroke-width:1px;}#theGraph .node .label{text-align:center;}#theGraph .node.clickable{cursor:pointer;}#theGraph .arrowheadPath{fill:#0b0b0b;}#theGraph .edgePath .path{stroke:#0b0b0b;stroke-width:2.0px;}#theGraph .flowchart-link{stroke:#0b0b0b;fill:none;}#theGraph .edgeLabel{background-color:hsl(-79.4117647059, 100%, 93.3333333333%);text-align:center;}#theGraph .edgeLabel rect{opacity:0.5;background-color:hsl(-79.4117647059, 100%, 93.3333333333%);fill:hsl(-79.4117647059, 100%, 93.3333333333%);}#theGraph .labelBkg{background-color:rgba(243.9999999999, 220.9999999998, 255, 0.5);}#theGraph .cluster rect{fill:hsl(220.5882352941, 100%, 98.3333333333%);stroke:hsl(220.5882352941, 60%, 88.3333333333%);stroke-width:1px;}#theGraph .cluster text{fill:rgb(8.5000000002, 5.7500000001, 0);}#theGraph .cluster span,#theGraph p{color:rgb(8.5000000002, 5.7500000001, 0);}#theGraph div.mermaidTooltip{position:absolute;text-align:center;max-width:200px;padding:2px;font-family:Segoe UI,Arial,sans-serif;font-size:12px;background:hsl(220.5882352941, 100%, 98.3333333333%);border:1px solid hsl(220.5882352941, 60%, 88.3333333333%);border-radius:2px;pointer-events:none;z-index:100;}#theGraph .flowchartTitleText{text-anchor:middle;font-size:18px;fill:#333;}#theGraph :root{--mermaid-font-family:"trebuchet ms",verdana,arial,sans-serif;}#theGraph .identity&gt;*{fill:#e8f0ff!important;stroke:#3b6db3!important;color:#10233f!important;stroke-width:1px!important;}#theGraph .identity span{fill:#e8f0ff!important;stroke:#3b6db3!important;color:#10233f!important;stroke-width:1px!important;}#theGraph .identity tspan{fill:#10233f!important;}#theGraph .catalogue&gt;*{fill:#eafaf1!important;stroke:#2f9e6f!important;color:#0f3d2a!important;stroke-width:1px!important;}#theGraph .catalogue span{fill:#eafaf1!important;stroke:#2f9e6f!important;color:#0f3d2a!important;stroke-width:1px!important;}#theGraph .catalogue tspan{fill:#0f3d2a!important;}#theGraph .learning&gt;*{fill:#fff5e6!important;stroke:#d38b1f!important;color:#4a3106!important;stroke-width:1px!important;}#theGraph .learning span{fill:#fff5e6!important;stroke:#d38b1f!important;color:#4a3106!important;stroke-width:1px!important;}#theGraph .learning tspan{fill:#4a3106!important;}#theGraph .cert&gt;*{fill:#f5ecff!important;stroke:#7d4bc4!important;color:#2e1650!important;stroke-width:1px!important;}#theGraph .cert span{fill:#f5ecff!important;stroke:#7d4bc4!important;color:#2e1650!important;stroke-width:1px!important;}#theGraph .cert tspan{fill:#2e1650!important;}#theGraph .support&gt;*{fill:#fdeef0!important;stroke:#c4506a!important;color:#4a1523!important;stroke-width:1px!important;}#theGraph .support span{fill:#fdeef0!important;stroke:#c4506a!important;color:#4a1523!important;stroke-width:1px!important;}#theGraph .support tspan{fill:#4a1523!important;}#theGraph .ops&gt;*{fill:#eeeeee!important;stroke:#888888!important;color:#333333!important;stroke-dasharray:4 3!important;}#theGraph .ops span{fill:#eeeeee!important;stroke:#888888!important;color:#333333!important;stroke-dasharray:4 3!important;}#theGraph .ops tspan{fill:#333333!important;}#theGraph .note&gt;*{fill:#fffef2!important;stroke:#c9b458!important;color:#4a3f10!important;stroke-width:1px!important;}#theGraph .note span{fill:#fffef2!important;stroke:#c9b458!important;color:#4a3f10!important;stroke-width:1px!important;}#theGraph .note tspan{fill:#4a3f10!important;}</style><g><marker id="theGraph_flowchart-pointEnd" class="marker flowchart" viewBox="0 0 10 10" refX="6" refY="5" markerUnits="userSpaceOnUse" markerWidth="12" markerHeight="12" orient="auto"><path d="M 0 0 L 10 5 L 0 10 z" class="arrowMarkerPath" style="stroke-width: 1; stroke-dasharray: 1, 0;"></path></marker><marker id="theGraph_flowchart-pointStart" class="marker flowchart" viewBox="0 0 10 10" refX="4.5" refY="5" markerUnits="userSpaceOnUse" markerWidth="12" markerHeight="12" orient="auto"><path d="M 0 5 L 10 10 L 10 0 z" class="arrowMarkerPath" style="stroke-width: 1; stroke-dasharray: 1, 0;"></path></marker><marker id="theGraph_flowchart-circleEnd" class="marker flowchart" viewBox="0 0 10 10" refX="11" refY="5" markerUnits="userSpaceOnUse" markerWidth="11" markerHeight="11" orient="auto"><circle cx="5" cy="5" r="5" class="arrowMarkerPath" style="stroke-width: 1; stroke-dasharray: 1, 0;"></circle></marker><marker id="theGraph_flowchart-circleStart" class="marker flowchart" viewBox="0 0 10 10" refX="-1" refY="5" markerUnits="userSpaceOnUse" markerWidth="11" markerHeight="11" orient="auto"><circle cx="5" cy="5" r="5" class="arrowMarkerPath" style="stroke-width: 1; stroke-dasharray: 1, 0;"></circle></marker><marker id="theGraph_flowchart-crossEnd" class="marker cross flowchart" viewBox="0 0 11 11" refX="12" refY="5.2" markerUnits="userSpaceOnUse" markerWidth="11" markerHeight="11" orient="auto"><path d="M 1,1 l 9,9 M 10,1 l -9,9" class="arrowMarkerPath" style="stroke-width: 2; stroke-dasharray: 1, 0;"></path></marker><marker id="theGraph_flowchart-crossStart" class="marker cross flowchart" viewBox="0 0 11 11" refX="-1" refY="5.2" markerUnits="userSpaceOnUse" markerWidth="11" markerHeight="11" orient="auto"><path d="M 1,1 l 9,9 M 10,1 l -9,9" class="arrowMarkerPath" style="stroke-width: 2; stroke-dasharray: 1, 0;"></path></marker><g class="root"><g class="clusters"><g class="cluster default flowchart-label" id="SUPP"><rect style="" rx="0" ry="0" x="726.1875" y="563" width="450.0625" height="226"></rect><g class="cluster-label" transform="translate(873.6171875, 563)"><foreignObject width="155.203125" height="19"><div xmlns="http://www.w3.org/1999/xhtml" style="display: inline-block; white-space: nowrap;"><span class="nodeLabel">Supporting / Operational</span></div></foreignObject></g></g><g class="cluster default flowchart-label" id="CERT"><rect style="" rx="0" ry="0" x="1226.25" y="9.75" width="202.75" height="123"></rect><g class="cluster-label" transform="translate(1290.3125, 9.75)"><foreignObject width="74.625" height="19"><div xmlns="http://www.w3.org/1999/xhtml" style="display: inline-block; white-space: nowrap;"><span class="nodeLabel">Certification</span></div></foreignObject></g></g><g class="cluster default flowchart-label" id="LRN"><rect style="" rx="0" ry="0" x="726.1875" y="229" width="702.8125" height="314"></rect><g class="cluster-label" transform="translate(1018.8359375, 229)"><foreignObject width="117.515625" height="19"><div xmlns="http://www.w3.org/1999/xhtml" style="display: inline-block; white-space: nowrap;"><span class="nodeLabel">Learning &amp; Activity</span></div></foreignObject></g></g><g class="cluster default flowchart-label" id="CAT"><rect style="" rx="0" ry="0" x="0" y="24.75" width="676.1875" height="422.75"></rect><g class="cluster-label" transform="translate(272.5234375, 24.75)"><foreignObject width="131.140625" height="19"><div xmlns="http://www.w3.org/1999/xhtml" style="display: inline-block; white-space: nowrap;"><span class="nodeLabel">Catalogue &amp; Content</span></div></foreignObject></g></g><g class="cluster default flowchart-label" id="IDENT"><rect style="" rx="0" ry="0" x="458.828125" y="467.5" width="217.359375" height="326.25"></rect><g class="cluster-label" transform="translate(517.7890625, 467.5)"><foreignObject width="99.4375" height="19"><div xmlns="http://www.w3.org/1999/xhtml" style="display: inline-block; white-space: nowrap;"><span class="nodeLabel">Identity &amp; Users</span></div></foreignObject></g></g></g><g class="edgePaths"><path d="M144.01,349.5L160.451,330.292C176.892,311.083,209.774,272.667,229.499,253.458C249.223,234.25,255.79,234.25,259.073,234.25L262.356,234.25" id="L-PR-MC-0" class=" edge-thickness-normal edge-pattern-solid flowchart-link LS-PR LE-MC" style="fill:none;" marker-end="url(#theGraph_flowchart-pointEnd)"></path><path d="M217.656,383.939L221.823,384.283C225.99,384.626,234.323,385.313,242.311,385.657C250.298,386,257.941,386,261.762,386L265.583,386" id="L-PR-MP-0" class=" edge-thickness-normal edge-pattern-solid flowchart-link LS-PR LE-MP" style="fill:none;" marker-end="url(#theGraph_flowchart-pointEnd)"></path><path d="M357.145,207.75L369.926,189.833C382.706,171.917,408.267,136.083,425.214,118.167C442.161,100.25,450.495,100.25,460.899,100.25C471.304,100.25,483.779,100.25,490.017,100.25L496.255,100.25" id="L-MC-CV-0" class=" edge-thickness-normal edge-pattern-solid flowchart-link LS-MC LE-CV" style="fill:none;" marker-end="url(#theGraph_flowchart-pointEnd)"></path><path d="M405.602,364.33L410.306,362.817C415.01,361.304,424.419,358.277,433.29,356.763C442.161,355.25,450.495,355.25,466.898,344.863C483.301,334.477,507.774,313.703,520.011,303.316L532.248,292.93" id="L-MP-PC-0" class=" edge-thickness-normal edge-pattern-solid flowchart-link LS-MP LE-PC" style="fill:none;" marker-end="url(#theGraph_flowchart-pointEnd)"></path><path d="M408.828,255.481L412.995,256.734C417.161,257.987,425.495,260.494,433.828,261.747C442.161,263,450.495,263,458.514,263C466.533,263,474.238,263,478.09,263L481.942,263" id="L-MC-PC-0" class=" edge-thickness-normal edge-pattern-solid flowchart-link LS-MC LE-PC" style="fill:none;" marker-end="url(#theGraph_flowchart-pointEnd)"></path><path d="M607.947,583.75L619.32,573.625C630.694,563.5,653.441,543.25,668.981,533.125C684.521,523,692.854,523,701.188,523C709.521,523,717.854,523,751.729,504.386C785.603,485.771,845.019,448.543,874.727,429.928L904.434,411.314" id="L-U-EN-0" class=" edge-thickness-normal edge-pattern-solid flowchart-link LS-U LE-EN" style="fill:none;" marker-end="url(#theGraph_flowchart-pointEnd)"></path><path d="M363.322,260.75L375.073,273.167C386.824,285.583,410.326,310.417,426.244,322.833C442.161,335.25,450.495,335.25,472.775,335.25C495.055,335.25,531.281,335.25,567.508,335.25C603.734,335.25,639.961,335.25,662.241,335.25C684.521,335.25,692.854,335.25,701.188,335.25C709.521,335.25,717.854,335.25,744.405,339.9C770.955,344.55,815.723,353.851,838.107,358.501L860.49,363.151" id="L-MC-EN-0" class=" edge-thickness-normal edge-pattern-solid flowchart-link LS-MC LE-EN" style="fill:none;" marker-end="url(#theGraph_flowchart-pointEnd)"></path><path d="M405.602,400.623L410.306,401.644C415.01,402.665,424.419,404.708,433.29,405.729C442.161,406.75,450.495,406.75,472.775,406.75C495.055,406.75,531.281,406.75,567.508,406.75C603.734,406.75,639.961,406.75,662.241,406.75C684.521,406.75,692.854,406.75,701.188,406.75C709.521,406.75,717.854,406.75,744.391,404.29C770.929,401.829,815.67,396.908,838.041,394.448L860.411,391.987" id="L-MP-EN-0" class=" edge-thickness-normal edge-pattern-solid flowchart-link LS-MP LE-EN" style="fill:none;" marker-end="url(#theGraph_flowchart-pointEnd)"></path><path d="M633.461,88.113L640.582,86.802C647.703,85.492,661.945,82.871,673.233,81.56C684.521,80.25,692.854,80.25,701.188,119.417C709.521,158.583,717.854,236.917,744.423,282.728C770.991,328.54,815.795,341.83,838.197,348.475L860.599,355.12" id="L-CV-EN-0" class=" edge-thickness-normal edge-pattern-solid flowchart-link LS-CV LE-EN" style="fill:none;" marker-end="url(#theGraph_flowchart-pointEnd)"></path><path d="M1016.392,355.5L1043.035,344.667C1069.678,333.833,1122.964,312.167,1153.774,301.333C1184.583,290.5,1192.917,290.5,1201.25,290.5C1209.583,290.5,1217.917,290.5,1229.388,290.5C1240.858,290.5,1255.467,290.5,1262.771,290.5L1270.075,290.5" id="L-EN-UP-0" class=" edge-thickness-normal edge-pattern-solid flowchart-link LS-EN LE-UP" style="fill:none;" marker-end="url(#theGraph_flowchart-pointEnd)"></path><path d="M1036.758,397.205L1060.007,401.337C1083.255,405.47,1129.753,413.735,1157.168,417.867C1184.583,422,1192.917,422,1201.25,422C1209.583,422,1217.917,422,1225.93,422C1233.944,422,1241.639,422,1245.486,422L1249.333,422" id="L-EN-AA-0" class=" edge-thickness-normal edge-pattern-solid flowchart-link LS-EN LE-AA" style="fill:none;" marker-end="url(#theGraph_flowchart-pointEnd)"></path><path d="M997.002,408.5L1026.877,425.792C1056.752,443.083,1116.501,477.667,1150.542,494.958C1184.583,512.25,1192.917,512.25,1201.25,512.25C1209.583,512.25,1217.917,512.25,1237.766,444.028C1257.615,375.805,1288.981,239.36,1304.663,171.138L1320.346,102.915" id="L-EN-CE-0" class=" edge-thickness-normal edge-pattern-solid flowchart-link LS-EN LE-CE" style="fill:none;" marker-end="url(#theGraph_flowchart-pointEnd)"></path><path d="M649.266,623.323L653.753,623.519C658.24,623.716,667.214,624.108,675.867,624.304C684.521,624.5,692.854,624.5,701.188,624.5C709.521,624.5,717.854,624.5,743.783,624.5C769.713,624.5,813.238,624.5,835,624.5L856.763,624.5" id="L-U-ADR-0" class=" edge-thickness-normal edge-pattern-solid flowchart-link LS-U LE-ADR" style="fill:none;" marker-end="url(#theGraph_flowchart-pointEnd)"></path><path d="M633.461,100.25L640.582,100.25C647.703,100.25,661.945,100.25,673.233,100.25C684.521,100.25,692.854,100.25,701.188,89.542C709.521,78.833,717.854,57.417,727.246,46.708C736.637,36,747.086,36,752.311,36L757.536,36" id="L-CV-JSON-0" class=" edge-thickness-normal edge-pattern-dotted flowchart-link LS-CV LE-JSON" style="fill:none;stroke-width:2px;stroke-dasharray:3;" marker-end="url(#theGraph_flowchart-pointEnd)"></path><path d="M605.401,136.25L617.199,147.458C628.996,158.667,652.592,181.083,668.556,192.292C684.521,203.5,692.854,203.5,701.188,195.917C709.521,188.333,717.854,173.167,725.304,165.583C732.754,158,739.321,158,742.604,158L745.888,158" id="L-CV-STORE-0" class=" edge-thickness-normal edge-pattern-dotted flowchart-link LS-CV LE-STORE" style="fill:none;stroke-width:2px;stroke-dasharray:3;" marker-end="url(#theGraph_flowchart-pointEnd)"></path></g><g class="edgeLabels"><g class="edgeLabel"><g class="label" transform="translate(0, 0)"><foreignObject width="0" height="0"><div xmlns="http://www.w3.org/1999/xhtml" style="display: inline-block; white-space: nowrap;"><span class="edgeLabel"></span></div></foreignObject></g></g><g class="edgeLabel"><g class="label" transform="translate(0, 0)"><foreignObject width="0" height="0"><div xmlns="http://www.w3.org/1999/xhtml" style="display: inline-block; white-space: nowrap;"><span class="edgeLabel"></span></div></foreignObject></g></g><g class="edgeLabel"><g class="label" transform="translate(0, 0)"><foreignObject width="0" height="0"><div xmlns="http://www.w3.org/1999/xhtml" style="display: inline-block; white-space: nowrap;"><span class="edgeLabel"></span></div></foreignObject></g></g><g class="edgeLabel"><g class="label" transform="translate(0, 0)"><foreignObject width="0" height="0"><div xmlns="http://www.w3.org/1999/xhtml" style="display: inline-block; white-space: nowrap;"><span class="edgeLabel"></span></div></foreignObject></g></g><g class="edgeLabel"><g class="label" transform="translate(0, 0)"><foreignObject width="0" height="0"><div xmlns="http://www.w3.org/1999/xhtml" style="display: inline-block; white-space: nowrap;"><span class="edgeLabel"></span></div></foreignObject></g></g><g class="edgeLabel"><g class="label" transform="translate(0, 0)"><foreignObject width="0" height="0"><div xmlns="http://www.w3.org/1999/xhtml" style="display: inline-block; white-space: nowrap;"><span class="edgeLabel"></span></div></foreignObject></g></g><g class="edgeLabel"><g class="label" transform="translate(0, 0)"><foreignObject width="0" height="0"><div xmlns="http://www.w3.org/1999/xhtml" style="display: inline-block; white-space: nowrap;"><span class="edgeLabel"></span></div></foreignObject></g></g><g class="edgeLabel"><g class="label" transform="translate(0, 0)"><foreignObject width="0" height="0"><div xmlns="http://www.w3.org/1999/xhtml" style="display: inline-block; white-space: nowrap;"><span class="edgeLabel"></span></div></foreignObject></g></g><g class="edgeLabel"><g class="label" transform="translate(0, 0)"><foreignObject width="0" height="0"><div xmlns="http://www.w3.org/1999/xhtml" style="display: inline-block; white-space: nowrap;"><span class="edgeLabel"></span></div></foreignObject></g></g><g class="edgeLabel"><g class="label" transform="translate(0, 0)"><foreignObject width="0" height="0"><div xmlns="http://www.w3.org/1999/xhtml" style="display: inline-block; white-space: nowrap;"><span class="edgeLabel"></span></div></foreignObject></g></g><g class="edgeLabel"><g class="label" transform="translate(0, 0)"><foreignObject width="0" height="0"><div xmlns="http://www.w3.org/1999/xhtml" style="display: inline-block; white-space: nowrap;"><span class="edgeLabel"></span></div></foreignObject></g></g><g class="edgeLabel"><g class="label" transform="translate(0, 0)"><foreignObject width="0" height="0"><div xmlns="http://www.w3.org/1999/xhtml" style="display: inline-block; white-space: nowrap;"><span class="edgeLabel"></span></div></foreignObject></g></g><g class="edgeLabel"><g class="label" transform="translate(0, 0)"><foreignObject width="0" height="0"><div xmlns="http://www.w3.org/1999/xhtml" style="display: inline-block; white-space: nowrap;"><span class="edgeLabel"></span></div></foreignObject></g></g><g class="edgeLabel"><g class="label" transform="translate(0, 0)"><foreignObject width="0" height="0"><div xmlns="http://www.w3.org/1999/xhtml" style="display: inline-block; white-space: nowrap;"><span class="edgeLabel"></span></div></foreignObject></g></g><g class="edgeLabel"><g class="label" transform="translate(0, 0)"><foreignObject width="0" height="0"><div xmlns="http://www.w3.org/1999/xhtml" style="display: inline-block; white-space: nowrap;"><span class="edgeLabel"></span></div></foreignObject></g></g></g><g class="nodes"><g class="node default support flowchart-label" id="flowchart-ADR-11" data-node="true" data-id="ADR" transform="translate(951.21875, 624.5)"><rect class="basic label-container" style="" rx="0" ry="0" x="-89.15625" y="-26.5" width="178.3125" height="53"></rect><g class="label" style="" transform="translate(-81.65625, -19)"><rect></rect><foreignObject width="163.3125" height="38"><div xmlns="http://www.w3.org/1999/xhtml" style="display: inline-block; white-space: nowrap;"><span class="nodeLabel">account_deletion_requests<br><small>privacy / account lifecycle</small></span></div></foreignObject></g></g><g class="node default ops flowchart-label" id="flowchart-SM-12" data-node="true" data-id="SM" transform="translate(951.21875, 727.5)"><rect class="basic label-container" style="" rx="0" ry="0" x="-67.7890625" y="-26.5" width="135.578125" height="53"></rect><g class="label" style="" transform="translate(-60.2890625, -19)"><rect></rect><foreignObject width="120.578125" height="38"><div xmlns="http://www.w3.org/1999/xhtml" style="display: inline-block; white-space: nowrap;"><span class="nodeLabel">schema_migrations<br><small>migration bookkeeping</small></span></div></foreignObject></g></g><g class="node default cert flowchart-label" id="flowchart-CE-10" data-node="true" data-id="CE" transform="translate(1327.625, 71.25)"><rect class="basic label-container" style="" rx="0" ry="0" x="-76.375" y="-26.5" width="152.75" height="53"></rect><g class="label" style="" transform="translate(-68.875, -19)"><rect></rect><foreignObject width="137.75" height="38"><div xmlns="http://www.w3.org/1999/xhtml" style="display: inline-block; white-space: nowrap;"><span class="nodeLabel">certificates<br><small>issued + public verification</small></span></div></foreignObject></g></g><g class="node default learning flowchart-label" id="flowchart-EN-7" data-node="true" data-id="EN" transform="translate(951.21875, 382)"><rect class="basic label-container" style="" rx="0" ry="0" x="-85.5390625" y="-26.5" width="171.078125" height="53"></rect><g class="label" style="" transform="translate(-78.0390625, -19)"><rect></rect><foreignObject width="156.078125" height="38"><div xmlns="http://www.w3.org/1999/xhtml" style="display: inline-block; white-space: nowrap;"><span class="nodeLabel">enrollments<br><small>programme OR credential row</small></span></div></foreignObject></g></g><g class="node default learning flowchart-label" id="flowchart-UP-8" data-node="true" data-id="UP" transform="translate(1327.625, 290.5)"><rect class="basic label-container" style="" rx="0" ry="0" x="-52.25" y="-26.5" width="104.5" height="53"></rect><g class="label" style="" transform="translate(-44.75, -19)"><rect></rect><foreignObject width="89.5" height="38"><div xmlns="http://www.w3.org/1999/xhtml" style="display: inline-block; white-space: nowrap;"><span class="nodeLabel">unit_progress<br><small>per-unit progress</small></span></div></foreignObject></g></g><g class="node default learning flowchart-label" id="flowchart-AA-9" data-node="true" data-id="AA" transform="translate(1327.625, 422)"><rect class="basic label-container" style="" rx="0" ry="0" x="-72.9921875" y="-26.5" width="145.984375" height="53"></rect><g class="label" style="" transform="translate(-65.4921875, -19)"><rect></rect><foreignObject width="130.984375" height="38"><div xmlns="http://www.w3.org/1999/xhtml" style="display: inline-block; white-space: nowrap;"><span class="nodeLabel">assessment_attempts<br><small>graded MCQ attempts</small></span></div></foreignObject></g></g><g class="node default catalogue flowchart-label" id="flowchart-PR-2" data-node="true" data-id="PR" transform="translate(121.328125, 376)"><rect class="basic label-container" style="" rx="0" ry="0" x="-96.328125" y="-26.5" width="192.65625" height="53"></rect><g class="label" style="" transform="translate(-88.828125, -19)"><rect></rect><foreignObject width="177.65625" height="38"><div xmlns="http://www.w3.org/1999/xhtml" style="display: inline-block; white-space: nowrap;"><span class="nodeLabel">projects<br><small>organisation + certificate template</small></span></div></foreignObject></g></g><g class="node default catalogue flowchart-label" id="flowchart-MC-3" data-node="true" data-id="MC" transform="translate(338.2421875, 234.25)"><rect class="basic label-container" style="" rx="0" ry="0" x="-70.5859375" y="-26.5" width="141.171875" height="53"></rect><g class="label" style="" transform="translate(-63.0859375, -19)"><rect></rect><foreignObject width="126.171875" height="38"><div xmlns="http://www.w3.org/1999/xhtml" style="display: inline-block; white-space: nowrap;"><span class="nodeLabel">micro_credentials<br><small>stable catalogue identity</small></span></div></foreignObject></g></g><g class="node default catalogue flowchart-label" id="flowchart-CV-4" data-node="true" data-id="CV" transform="translate(567.5078125, 100.25)"><rect class="basic label-container" style="" rx="0" ry="0" x="-65.953125" y="-36" width="131.90625" height="72"></rect><g class="label" style="" transform="translate(-58.453125, -28.5)"><rect></rect><foreignObject width="116.90625" height="57"><div xmlns="http://www.w3.org/1999/xhtml" style="display: inline-block; white-space: nowrap;"><span class="nodeLabel">credential_versions<br><small>immutable revisions +<br>content/grading JSON</small></span></div></foreignObject></g></g><g class="node default catalogue flowchart-label" id="flowchart-MP-5" data-node="true" data-id="MP" transform="translate(338.2421875, 386)"><rect class="basic label-container" style="" rx="0" ry="0" x="-67.359375" y="-26.5" width="134.71875" height="53"></rect><g class="label" style="" transform="translate(-59.859375, -19)"><rect></rect><foreignObject width="119.71875" height="38"><div xmlns="http://www.w3.org/1999/xhtml" style="display: inline-block; white-space: nowrap;"><span class="nodeLabel">micro_programmes<br><small>programme catalogue</small></span></div></foreignObject></g></g><g class="node default catalogue flowchart-label" id="flowchart-PC-6" data-node="true" data-id="PC" transform="translate(567.5078125, 263)"><rect class="basic label-container" style="" rx="0" ry="0" x="-80.265625" y="-26.5" width="160.53125" height="53"></rect><g class="label" style="" transform="translate(-72.765625, -19)"><rect></rect><foreignObject width="145.53125" height="38"><div xmlns="http://www.w3.org/1999/xhtml" style="display: inline-block; white-space: nowrap;"><span class="nodeLabel">programme_credentials<br><small>ordered membership</small></span></div></foreignObject></g></g><g class="node default identity flowchart-label" id="flowchart-U-0" data-node="true" data-id="U" transform="translate(567.5078125, 619.75)"><rect class="basic label-container" style="" rx="0" ry="0" x="-81.7578125" y="-36" width="163.515625" height="72"></rect><g class="label" style="" transform="translate(-74.2578125, -28.5)"><rect></rect><foreignObject width="148.515625" height="57"><div xmlns="http://www.w3.org/1999/xhtml" style="display: inline-block; white-space: nowrap;"><span class="nodeLabel">app_users<br><small>Clerk identity → app identity,<br>role, profile, deactivation</small></span></div></foreignObject></g></g><g class="node default identity flowchart-label" id="flowchart-PS-1" data-node="true" data-id="PS" transform="translate(567.5078125, 732.25)"><rect class="basic label-container" style="" rx="0" ry="0" x="-83.6796875" y="-26.5" width="167.359375" height="53"></rect><g class="label" style="" transform="translate(-76.1796875, -19)"><rect></rect><foreignObject width="152.359375" height="38"><div xmlns="http://www.w3.org/1999/xhtml" style="display: inline-block; white-space: nowrap;"><span class="nodeLabel">platform_settings<br><small>singleton: maintenance mode</small></span></div></foreignObject></g></g><g class="node default note flowchart-label" id="flowchart-JSON-39" data-node="true" data-id="JSON" transform="translate(951.21875, 36)"><rect class="basic label-container" style="" rx="0" ry="0" x="-188.3828125" y="-36" width="376.765625" height="72"></rect><g class="label" style="" transform="translate(-180.8828125, -28.5)"><rect></rect><foreignObject width="361.765625" height="57"><div xmlns="http://www.w3.org/1999/xhtml" style="display: inline-block; white-space: nowrap;"><span class="nodeLabel">JSON content: credential_versions stores the whole<br>Section → Subsection → Unit tree (content_document) and<br>server-only answers (grading_document) as JSONB.</span></div></foreignObject></g></g><g class="node default note flowchart-label" id="flowchart-STORE-40" data-node="true" data-id="STORE" transform="translate(951.21875, 158)"><rect class="basic label-container" style="" rx="0" ry="0" x="-200.03125" y="-36" width="400.0625" height="72"></rect><g class="label" style="" transform="translate(-192.53125, -28.5)"><rect></rect><foreignObject width="385.0625" height="57"><div xmlns="http://www.w3.org/1999/xhtml" style="display: inline-block; white-space: nowrap;"><span class="nodeLabel">Object storage: file bytes live in a provider (local today,<br>Backblaze B2 later). PostgreSQL stores only logical object keys.<br>No assets table; no absolute paths.</span></div></foreignObject></g></g></g></g></g></svg>